<svg width="24" height="24" fill="none" xmlns="http://www.w3.org/2000/svg"><path d="m16.078 13.333 4.078-5c.844-1 2.47-3.874 1.344-5-1.126-1.126-4.14.874-5.267 2L12 9.255 7.922 5.177a2.883 2.883 0 0 0-4.077 4.078l4.077 4.078L5 17.41c-1.126 1.126-1.126 2.296 0 3.422 1.126 1.126 2.374.626 3.5-.5L12 17.41l3.5 2.922c1.126 1.126 2.874 1.626 4 .5s1.626-1.874.5-3l-3.922-4.5Z" fill="url(#a)"/><defs><linearGradient id="a" x1="12" y1="4.333" x2="12" y2="22.333" gradientUnits="userSpaceOnUse"><stop stop-color="#F80854"/><stop offset="1" stop-color="#5457D4"/></linearGradient></defs></svg>