<svg xmlns="http://www.w3.org/2000/svg" width="412" height="568" viewBox="0 0 412 568" fill="none">
    <path fill-rule="evenodd" clip-rule="evenodd"
          d="M205.702 1046.11L143.932 964.192C82.1614 882.276 -41.3793 718.445 15.4558 634.922C72.2909 551.399 309.502 548.185 382.735 471.963C455.967 395.74 365.222 246.511 405.66 155.687C446.097 64.8635 617.717 32.4461 703.526 16.2373L789.336 0.0286037L1182.88 175.247L1162.66 220.659C1142.45 266.071 1102.01 356.894 1061.57 447.718C1021.13 538.542 980.697 629.365 940.26 720.189C899.822 811.012 859.385 901.836 818.948 992.66C778.511 1083.48 738.073 1174.31 717.855 1219.72L697.636 1265.13L205.702 1046.11Z"
          fill="#99FE00"/>
</svg>