<svg xmlns="http://www.w3.org/2000/svg" width="346" height="655" viewBox="0 0 346 655" fill="none">
    <path fill-rule="evenodd" clip-rule="evenodd"
          d="M62.2353 -496.251L140.849
          -430.331C219.464 -364.41 376.692
          -232.568 340.102 -138.401C303.512
          -44.2335 73.1043 12.2593 18.8946
          103.002C-35.3151 193.744 86.6736
          318.736 67.7036 416.328C48.7336 513.92
          -111.195 584.113 -191.159 619.209L-271.124
          654.305L-694 572.107L-684.515 523.311C-675.03 474.514
          -656.06 376.922 -637.09 279.33C-618.12 181.738
          -599.15 84.1455 -580.18 -13.4467C-561.21 -111.039
          -542.24 -208.631 -523.27 -306.223C-504.3 -403.816
          -485.33 -501.408 -475.845 -550.204L-466.36
          -599L62.2353 -496.251Z"
          fill="#99FE00"/>
</svg>