<svg width="230" height="985" viewBox="0 0 230 985" fill="none" xmlns="http://www.w3.org/2000/svg">
<path fill-rule="evenodd" clip-rule="evenodd" d="M-204.135 0.0229505L-148.977 42.2154C-93.819 84.4079 16.4966 168.793 46.9011 280.693C77.3055 392.594 27.7989 532.01 50.9387 646.412C74.0785 760.814 169.865 850.202 207.534 959.601C245.203 1069 224.755 1198.41 214.531 1263.12L204.307 1327.82L29.9555 1387.85L11.1209 1333.16C-7.71368 1278.46 -45.3828 1169.06 -83.052 1059.66C-120.721 950.258 -158.39 840.859 -196.059 731.46C-233.728 622.061 -271.398 512.662 -309.067 403.263C-346.736 293.864 -384.405 184.465 -403.24 129.765L-422.074 75.0655L-204.135 0.0229505Z" fill="#0FA5A7"/>
</svg>
