<svg width="276" height="202" fill="none" xmlns="http://www.w3.org/2000/svg"><g clip-path="url(#a)" fill="#A3002B"><path d="M126.371.542C70.396 3.54 23 27.174 6.331 60.393c-7.287 14.57-8.192 29.629-2.687 44.998 2.067 5.735 6.538 13.407 11.216 19.245 2.739 3.435 8.812 9.505 12.714 12.734 15.3 12.632 35.12 22.086 58.973 28.105 3.05.775 5.918 1.395 6.358 1.395 1.783 0 2.765-1.912 1.628-3.178-.491-.568-1.19-.826-4.084-1.472-20.183-4.572-40.107-13.148-54.295-23.403C21.398 128.2 11.345 115.543 6.9 102.085c-3.592-10.875-3.618-21.44-.052-32.237C17.831 36.499 62.333 10.488 117.326 5.32c7.055-.671 12.637-.93 20.674-.93 8.037 0 13.619.259 20.674.93 54.993 5.166 99.495 31.178 110.478 64.527 4.29 13.044 3.333 26.27-2.817 39.031-10.983 22.731-37.136 41.226-72.515 51.223-3.98 1.136-10.802 2.764-15.324 3.668-2.378.465-3.179 1.911-1.939 3.487.517.646.672.697 1.861.568 2.197-.232 9.614-1.911 15.196-3.435 42.201-11.547 72.023-35.156 80.164-63.442 5.013-17.41 1.163-35.388-10.958-51.481C243.283 23.584 203.77 5.32 158.287 1.162c-9.743-.878-22.509-1.136-31.916-.62Z"/><path d="M52.72 49.854c-1.629.284-2.404.62-9.382 3.72-3.385 1.498-6.202 2.738-6.254 2.738-.051 0-.18-.542-.284-1.214-.207-1.42-1.266-2.66-2.248-2.66-1.344 0-2.507 2.22-2.507 4.726 0 1.189-.026 1.24-1.292 2.015-1.499.93-1.81 1.395-1.81 2.687 0 .749.208 1.162.88 1.834.49.49 1.137.878 1.498.878h.595l.026 22.292c0 17.126.103 22.525.336 23.429.465 1.602 1.99 3.1 3.178 3.1.956 0 1.447-.31 2.12-1.292.542-.8.542-2.144 0-13.354-.233-4.857-.362-8.99-.285-9.222.233-.568 4.42-2.609 6.073-2.97.75-.156 2.378-.285 3.618-.285 3.721 0 5.737 1.292 5.737 3.668 0 2.04-1.344 5.477-3.178 8.215-2.456 3.642-4.394 5.476-6.28 5.967-2.869.723-4.032 1.885-4.083 4.029-.026.982.103 1.266.723 1.808.672.569.93.646 2.016.517.698-.103 1.99-.542 2.868-1.007 4.807-2.532 11.785-12.554 12.87-18.47.775-4.133-1.37-7.671-5.892-9.841l-2.016-.956h-3.489c-3.437 0-3.54.026-6.15 1.007-1.447.543-2.688.956-2.74.904-.103-.103-.258-16.79-.18-18.391.026-.569.206-.801 1.008-1.137.516-.207 3.41-1.498 6.383-2.841 8.915-4.03 12.275-6.226 12.275-8.034 0-.981-.775-1.86-1.654-1.86-.336 0-.775-.051-.982-.103-.18-.052-.853 0-1.499.103ZM200.074 53.548c-1.654 1.757-6.047 14.13-10.389 29.37-2.739 9.506-4.289 16.093-5.814 24.54-2.688 14.982-3.954 19.735-6.952 25.96-7.417 15.447-20.105 25.728-35.585 28.854-4.006.8-13.128.878-16.385.103-6.951-1.627-12.146-4.417-16.823-9.067-5.091-5.011-7.856-10.565-8.632-17.41-.18-1.524-.232-3.461-.129-4.598l.181-1.937 1.06-.465c1.395-.594 3.721-.956 8.579-1.266 9.252-.62 16.721-.594 46.414.052 1.525.025 2.429-.078 2.92-.336 1.37-.723 1.861-2.712 1.008-4.159-.904-1.524-.956-1.524-17.34-1.524-28.324.026-45.665.775-47.215 2.066-.594.491-1.473 4.831-1.602 8.008-.336 6.975 1.705 14.104 5.788 20.278 2.171 3.254 6.565 7.671 9.847 9.893 4.78 3.255 10.621 5.605 16.461 6.664 3.437.595 10.518.595 14.472 0 23.879-3.693 41.917-21.904 47.525-47.942.491-2.351 1.628-8.395 2.481-13.433 2.455-14.233 2.791-15.705 6.9-29.757 1.55-5.218 2.868-9.325 2.946-9.17.103.18.853 2.867 1.654 5.993 2.248 8.679 4.005 14.62 6.435 21.646 3.023 8.68 3.747 10.126 5.608 11.263 1.731 1.059 3.437.49 3.747-1.214.284-1.524-.207-3.333-4.678-16.842-3.54-10.643-4.626-14.362-6.59-22.215-3.152-12.71-3.592-13.949-4.755-13.949-.336 0-.827.258-1.137.594ZM238.787 54.168c-2.688 4.236-9.355 25.392-14.653 46.445-1.602 6.406-1.809 8.524-.931 9.996.44.775.595.853 1.913.93 1.008.052 1.602-.077 2.196-.439.776-.465.776-.491 1.086-3.926.284-3.1 1.008-7.982 1.214-8.189.026-.052 1.473-.18 3.179-.31 3.747-.284 5.866-.723 10.26-2.066 1.86-.569 3.437-1.034 3.514-1.034.104 0 .724 1.421 1.396 3.152 2.532 6.509 3.514 8.188 5.194 8.731 1.008.336 2.481.155 2.92-.336.517-.646.595-2.351.155-4.056-.232-.929-2.274-7.258-4.522-14.078-3.385-10.229-4.548-14.13-6.59-22.266-3.256-12.993-3.54-13.768-4.962-13.768-.439 0-.801.336-1.369 1.214Zm1.757 19.063c1.473 5.218 3.928 14.595 3.928 15.034 0 .44-5.53 3.436-7.83 4.236-2.171.75-5.505 1.447-5.763 1.215-.207-.207 1.163-4.702 4.806-15.938 1.706-5.27 3.102-9.635 3.102-9.765.025-.594.568 1.034 1.757 5.218Z"/><path d="M153.247 54.013c-1.059.13-2.817.413-3.876.646-4.368.956-11.345 3.874-12.353 5.14-1.189 1.524-.439 3.978 1.396 4.495 1.033.284 1.757.103 3.643-.827 2.119-1.085 5.091-2.195 7.779-2.944 2.248-.62 2.946-.672 6.9-.672 5.117 0 7.055.387 10.725 2.17 2.946 1.446 6.124 4.598 7.572 7.49 1.628 3.333 2.067 5.451 2.067 10.05 0 3.486-.077 4.313-.646 6.483-.956 3.487-2.119 6.173-3.851 8.757-5.168 7.697-13.024 9.893-18.451 5.114-5.35-4.701-5.169-15.783.387-23.971 1.086-1.602 4.239-4.676 5.427-5.296 2.791-1.446 1.37-5.967-1.731-5.476-2.145.362-7.262 5.166-9.484 8.938-1.525 2.583-2.843 5.786-3.541 8.627-.672 2.764-.93 8.008-.491 10.695.388 2.557 1.68 5.992 2.92 7.878 2.068 3.1 5.634 5.58 9.355 6.535 1.939.491 5.453.491 7.547 0 7.959-1.885 14.807-9.738 17.495-20.122 2.584-9.945.31-20.278-5.866-26.529-4.058-4.133-9.407-6.483-16.229-7.207-2.921-.284-3.903-.284-6.694.026ZM129.033 56.054c-1.344.284-2.895 1.059-3.592 1.86-.311.31-1.008 1.704-1.525 3.048-1.318 3.306-5.892 12.812-10.131 21.026-3.488 6.768-7.571 14.182-7.727 14.027-.051-.052.026-1.292.181-2.79.388-4.03.621-32.03.259-33.942-.336-1.886-.931-2.454-2.507-2.454-1.473 0-2.377.439-2.894 1.395-.414.723-.44 2.919-.517 24.617-.078 26.735-.155 25.366 1.705 25.934 1.422.414 2.636-.026 3.877-1.446 1.085-1.214 2.352-3.513 11.345-20.536 3.359-6.329 6.435-12.09 6.822-12.787l.75-1.291v1.162c0 .646-.181 3.488-.388 6.329-.672 9.635-.724 12.786-.258 19.735.258 4.004.568 6.897.775 7.413.362.905 1.525 1.654 2.533 1.654.852 0 1.964-.93 2.48-2.041.362-.827.414-2.428.414-13.07.026-11.496.077-12.632.853-21.182.439-4.986.878-10.462.982-12.167.181-3.022.155-3.1-.44-3.771-.723-.827-1.524-1.007-2.997-.723ZM182.191 55.976c-.93.104-6.719 1.137-6.719 1.214 0 0 1.085 1.137 2.403 2.532l2.404 2.48 1.137-.233c.646-.103 2.532-.207 4.212-.232 2.016 0 3.334-.13 3.928-.362 2.119-.904 2.197-4.107.129-5.192-.723-.362-4.858-.49-7.494-.207ZM81.198 56.312c-2.92.44-4.988 1.343-8.27 3.539-1.783 1.188-3.308 2.066-3.411 1.963-.103-.103-.336-.672-.517-1.24-.569-1.86-1.447-2.325-2.946-1.653-.905.44-1.318 1.627-1.266 3.771.026 1.809 0 1.912-.853 2.842-1.086 1.188-2.171 3.306-2.171 4.236 0 .904 1.215 1.963 2.714 2.35l1.085.285.18 2.221c.078 1.214.518 4.417.931 7.13.44 2.686 1.266 8.498 1.835 12.915 1.111 8.731 1.964 12.993 2.868 14.673.492.878.75 1.11 1.448 1.162 1.576.155 3.153-1.524 3.153-3.306 0-.491-.285-2.894-.646-5.296-.362-2.428-.647-4.908-.647-5.554 0-1.059.104-1.214.982-1.808.517-.361 2.533-1.834 4.445-3.255 6.15-4.598 9.485-8.756 11.268-13.974 1.912-5.631 1.809-11.753-.259-16.196-1.628-3.54-3.385-4.857-6.59-4.96-1.085-.026-2.584.026-3.333.155Zm1.809 5.683c1.085.31 2.584 1.86 3.178 3.255 1.034 2.48 1.034 6.87 0 10.823-.568 2.118-1.99 4.908-3.256 6.406-.956 1.11-5.35 4.546-7.908 6.2l-1.11.697-.13-.568c-.569-2.454-1.06-5.477-2.068-12.528-.646-4.47-1.162-8.24-1.162-8.344 0-.413 4.548-4.185 5.788-4.83 1.24-.62 3.8-1.318 5.066-1.344.361-.025 1.059.104 1.602.233ZM20.907 148.839c-.62.879-1.215 1.705-1.292 1.834-.078.13-.776-.103-1.525-.49-2.791-1.447-5.246-1.059-7.365 1.214-1.525 1.627-2.197 3.074-2.197 4.83 0 1.783.491 2.867 1.912 4.314.646.646 1.19 1.214 1.19 1.292 0 .051-.518.852-1.164 1.756-1.214 1.757-1.395 2.351-.775 2.609.465.155.904-.258 2.197-2.17l1.033-1.498 1.473.801c3.36 1.834 6.823.594 8.71-3.126 1.42-2.79 1.059-5.011-1.164-7.207l-1.318-1.317 1.318-1.86c1.008-1.472 1.24-1.963 1.034-2.247-.517-.594-.904-.362-2.067 1.265Zm-4.316 2.015c.517.155 1.215.491 1.525.749l.568.465-3.023 4.288c-3.282 4.624-3.205 4.572-4.471 3.229-.724-.775-1.37-2.299-1.37-3.229 0-1.085 1.111-3.177 2.223-4.262 1.55-1.472 2.636-1.756 4.548-1.24Zm3.98 2.48c.956.646 1.912 2.428 1.912 3.616-.026 1.912-1.654 4.495-3.411 5.425-1.292.672-3.644.387-5.091-.62-.284-.207.284-1.162 2.662-4.546 1.68-2.351 3.1-4.288 3.152-4.288.078 0 .414.181.776.413ZM261.967 147.6c-.077.206 1.241 2.324 3.102 4.985 3.954 5.631 3.824 5.476 4.393 4.934.491-.517.723-.104-3.463-6.096-2.869-4.056-3.67-4.805-4.032-3.823ZM253.594 153.36c-.181.052-.336.284-.336.516 0 .517 6.409 9.558 6.9 9.765.827.31 4.368-2.299 5.143-3.772 1.215-2.402-.904-5.915-3.566-5.915-1.111 0-2.429.594-3.928 1.782-.543.439-1.086.724-1.215.646-.129-.077-.698-.826-1.266-1.679-1.06-1.524-1.137-1.601-1.732-1.343Zm9.252 2.48c.543.361 1.008.981 1.241 1.627.335.982.335 1.137-.13 1.937-.439.749-2.791 2.816-3.23 2.816-.078 0-.853-1.033-1.731-2.299l-1.603-2.299 1.292-.956c1.163-.852 2.197-1.343 2.998-1.395.155-.025.672.233 1.163.569ZM246.927 157.596c-1.421.827-2.688 1.679-2.843 1.886-.155.284.104 1.007.957 2.66 2.377 4.547 3.101 7.672 1.989 8.576l-.542.44.93 1.575c1.085 1.834 1.318 2.041 1.835 1.628.336-.285.284-.491-.31-1.576-.362-.698-.62-1.317-.569-1.369.104-.103 7.288-4.288 8.218-4.779.44-.232.595-.129 1.189.878.413.749.853 1.163 1.163 1.163.749 0 .646-.672-.362-2.325-.853-1.395-1.24-1.627-2.222-1.188-.31.129-1.034-.956-3.101-4.495-2.145-3.72-2.791-4.65-3.205-4.624-.31 0-1.706.698-3.127 1.55Zm5.401 4.236c1.809 3.074 2.352 4.211 2.145 4.418-.827.749-5.375 3.177-5.453 2.867-.827-3.152-1.369-4.676-2.274-6.561-.62-1.266-1.111-2.377-1.111-2.48 0-.233 3.799-2.506 4.083-2.428.103.026 1.292 1.911 2.61 4.184ZM27.316 157.622c-1.964 3.1-5.608 9.558-5.608 9.893 0 .207.18.465.413.569.207.077 2.998-.879 6.203-2.119 3.178-1.265 5.84-2.221 5.892-2.169.051.051-.982 1.963-2.326 4.236-1.81 3.074-2.326 4.185-2.12 4.443.156.181.414.336.595.336.336 0 5.996-9.351 6.254-10.281.258-1.059-.801-.827-6.693 1.498-3.256 1.266-5.97 2.325-6.021 2.325-.052 0 1.007-1.886 2.351-4.159 1.344-2.299 2.43-4.365 2.378-4.598-.13-.646-.905-.646-1.318.026ZM237.029 162.969c-3.359 1.162-4.729 4.34-3.385 7.904.698 1.834 1.912 3.462 3.204 4.211 2.016 1.162 5.376.413 7.443-1.679.956-.93 1.292-2.144.62-2.144-.181 0-.749.413-1.24.93-1.008 1.085-3.127 2.17-4.187 2.17-.413 0-1.137-.181-1.628-.414-.853-.413-2.171-1.73-2.171-2.169 0-.13 1.68-1.034 3.722-2.015 2.687-1.318 3.773-1.963 3.902-2.351.233-.749-.982-3.203-1.886-3.849-.724-.491-2.223-1.085-2.74-1.085-.155.026-.904.233-1.654.491Zm3.386 1.576c.646.516 1.886 2.273 1.705 2.428-.051.052-1.654.878-3.566 1.834-3.721 1.86-3.747 1.86-4.057.181-.362-1.86.646-3.875 2.351-4.598 1.189-.517 2.791-.439 3.567.155ZM40.676 164.235c-.155.103-1.11 1.601-2.145 3.358-1.007 1.731-2.377 3.694-2.997 4.365-1.086 1.111-1.189 1.163-2.197 1.008-.801-.129-1.085-.078-1.189.232-.284.698.414 1.163 1.654 1.163 1.137 0 1.292-.104 2.636-1.499.776-.852 2.171-2.764 3.075-4.262.905-1.524 1.758-2.764 1.861-2.764.362 0 4.11 1.912 4.11 2.093 0 .103-1.06 2.35-2.327 5.037-2.041 4.21-2.3 4.908-1.964 5.218.207.206.517.284.698.18.465-.284 5.453-10.694 5.246-11.004-.258-.439-6.202-3.306-6.46-3.125ZM219.275 166.095c-.439 1.989-2.119 2.764-4.005 1.808-1.628-.827-2.223.155-.698 1.162 2.326 1.498 5.866-.258 5.866-2.919 0-.645-.103-.826-.491-.826-.336 0-.543.232-.672.775ZM50.393 169.84c-1.266.568-2.506 1.834-3.308 3.358-.568 1.085-.697 1.628-.697 3.41 0 1.937.077 2.196.775 3.229.956 1.343 2.972 2.505 4.78 2.712 3.567.413 6.72-2.919 6.72-7.155 0-.827-.13-1.834-.284-2.247-.362-.982-1.706-2.351-2.946-2.971-1.344-.697-3.85-.878-5.04-.336Zm4.264 1.395c2.843 1.292 3.49 4.366 1.603 7.543-.595 1.007-1.137 1.55-1.99 1.963-1.473.775-2.43.749-4.083-.078-2.068-1.033-2.869-2.815-2.352-5.269.775-3.591 3.876-5.502 6.822-4.159ZM222.557 169.892c-.129.258-.956 2.893-1.86 5.889-1.861 6.277-1.939 6.458-2.275 5.554-.129-.362-.852-2.196-1.576-4.081-.724-1.886-1.421-3.642-1.576-3.927-.336-.62-.982-.671-1.189-.129-.155.414 3.644 10.591 4.161 11.185.439.491 1.137.103 1.369-.801.129-.465.982-3.254 1.887-6.225 1.189-3.926 1.68-5.244 1.835-4.908.129.284.956 2.351 1.834 4.624 1.318 3.358 1.706 4.133 2.12 4.133.284 0 .542-.181.594-.413.026-.233-.879-2.868-2.042-5.864-1.679-4.34-2.222-5.476-2.584-5.476-.258 0-.568.206-.698.439ZM63.857 174.464c-2.403.852-4.135 3.487-4.367 6.639-.155 2.273.49 3.745 2.197 4.856 1.938 1.291 5.116 1.627 6.434.697.802-.594.155-.878-1.912-.852-1.68.026-2.17-.052-3.127-.594-1.421-.775-2.145-1.938-2.145-3.462-.052-1.989.543-3.513 1.887-4.856 1.886-1.886 3.747-1.989 6.176-.31 2.042 1.395 2.972.62 1.111-.93-1.68-1.369-4.341-1.886-6.254-1.188ZM205.992 175.291c-.827.413-1.602 1.059-1.99 1.627-2.274 3.435-.232 9.609 3.541 10.617 1.964.542 4.91-.362 6.46-1.964.75-.775.802-.93.466-1.265-.336-.336-.543-.259-1.732.645-2.817 2.093-6.021 1.654-7.443-1.084-.206-.388-.284-.75-.155-.801.104-.078 1.887-.646 3.954-1.318 2.094-.645 3.928-1.369 4.109-1.575.207-.259.259-.724.129-1.344-.671-3.616-3.979-5.192-7.339-3.538Zm4.471 1.162c.672.542 1.215 1.395 1.551 2.48.155.516-.078.62-3.567 1.73-2.041.646-3.799 1.189-3.876 1.189-.31 0-.155-2.893.207-3.565 1.111-2.144 4.083-3.1 5.685-1.834ZM92.93 176.117c-.051.103-.232.93-.413 1.86-.465 2.635-.362 2.531-1.757 2.376-3.748-.361-6.461 2.17-6.72 6.277-.155 2.377.233 3.539 1.603 4.908.8.775 1.524 1.214 2.636 1.55l1.576.465-.362 2.067c-.387 2.195-.336 2.764.285 2.764.516 0 .826-.646 1.033-2.196.362-2.506.233-2.376 2.3-2.376 3.954 0 6.203-2.454 6.228-6.82.026-1.731-.051-2.092-.75-3.229-.852-1.369-2.144-2.247-3.979-2.738l-1.111-.284.155-1.059c.517-3.384.517-3.772-.052-3.772-.284 0-.594.078-.672.207Zm-1.188 6.045c0 .335-.362 2.634-.776 5.114-.413 2.48-.775 4.624-.775 4.753 0 .129-.362.155-.801.052-1.447-.284-2.584-1.008-3.282-2.041-.569-.852-.672-1.291-.646-2.738.026-3.668 1.783-5.683 4.936-5.709 1.214 0 1.344.052 1.344.569Zm3.592.465c2.041 1.033 2.868 2.841 2.48 5.372-.206 1.37-.878 2.816-1.602 3.462-.697.646-2.274 1.24-3.23 1.24-1.654 0-1.628.051-.698-5.528.827-4.856.905-5.063 1.473-5.063.31 0 1.034.232 1.577.517Z"/><path d="M74.169 177.615c-3.334 1.447-4.936 6.303-3.153 9.661 1.731 3.332 6.667 4.107 9.329 1.498 2.817-2.738 2.869-8.085.13-10.177-1.706-1.317-4.55-1.757-6.306-.982Zm3.747 1.163c1.55.439 2.894 1.911 3.1 3.435.26 1.576-.206 3.643-1.059 4.882-2.015 2.997-6.693 2.429-8.01-.981-.957-2.532.335-6.096 2.583-7.13 1.215-.542 1.939-.594 3.386-.206ZM198.343 177.693c-.078.155.439 2.609 1.163 5.476.723 2.867 1.266 5.244 1.214 5.321-.207.181-5.091 1.447-5.194 1.344-.052-.052-.698-2.429-1.421-5.244-.724-2.842-1.448-5.244-1.603-5.347-.439-.259-1.008 0-1.008.516 0 .233.595 2.687 1.293 5.451.697 2.764 1.24 5.037 1.214 5.063-.129.155-5.22 1.343-5.298 1.265-.051-.051-.697-2.454-1.421-5.347-1.189-4.623-1.395-5.243-1.861-5.243a.608.608 0 0 0-.594.49c-.129.62 2.507 11.03 2.894 11.444.207.232 1.964-.13 7.236-1.473 3.825-.981 7.081-1.911 7.236-2.066.233-.233-.568-3.875-2.481-11.056-.232-.801-1.007-1.162-1.369-.594ZM176.118 181.877c-2.688.646-4.393 3.074-4.342 6.2.078 4.934 3.954 7.853 8.373 6.303 4.213-1.498 5.221-7.62 1.809-11.004-1.653-1.679-3.307-2.093-5.84-1.499Zm4.212 1.835c1.396.852 2.197 2.867 2.068 5.192-.104 2.221-.75 3.332-2.378 4.081-3.437 1.55-6.486-.594-6.796-4.753-.233-3.332 2.015-5.58 5.22-5.192.543.077 1.395.362 1.886.672ZM102.466 182.937c-.077.18-.413 2.893-.775 6.018-.517 4.624-.569 5.735-.284 6.019.181.181.517.258.723.181.233-.104 2.3-2.144 4.6-4.547 2.3-2.402 4.264-4.365 4.368-4.365.103 0-.026 1.782-.259 3.926-.258 2.17-.465 4.366-.465 4.882-.026.956.388 1.395.956 1.034.336-.207 1.706-11.805 1.448-12.193-.388-.645-1.422.155-5.376 4.288-2.377 2.48-4.419 4.521-4.522 4.521-.104 0 .026-1.834.284-4.082.543-4.752.517-5.812-.129-5.941-.233-.051-.491.052-.569.259ZM162.396 183.892c-1.008.465-1.809 1.318-2.326 2.48-.181.413-.233.31-.31-.568-.104-1.292-.672-1.912-1.215-1.343-.31.31-.233 1.524.543 8.627.956 8.473 1.188 9.506 2.015 8.654.259-.31.311-.749.155-1.938-.129-.852-.232-1.963-.232-2.479l-.026-.93 1.757.103c4.29.31 6.719-1.679 6.978-5.735.207-3.358-.982-6.173-2.92-7-1.215-.491-3.153-.439-4.419.129Zm4.419 1.576c1.55 1.447 2.067 5.528.956 7.646-.827 1.602-2.352 2.273-4.755 2.118-.982-.077-1.913-.258-2.068-.413-.361-.362-.749-4.081-.568-5.605.232-1.912 1.034-3.41 2.145-4.004 1.292-.724 3.385-.594 4.29.258ZM118.205 184.796c-1.112.491-1.861 1.524-2.068 2.868-.207 1.498.259 2.789 1.318 3.668l.879.723-1.577 1.886c-.93 1.136-1.499 2.015-1.395 2.247.31.827 1.111.336 2.687-1.679l1.629-2.067h3.359l-.181 2.325c-.155 2.041-.129 2.325.259 2.48.258.103.568.052.697-.077.31-.31 1.292-11.754 1.008-12.038-.646-.697-5.246-.93-6.615-.336Zm4.91 1.085c.361.129.413.491.258 2.532-.103 1.291-.284 2.505-.439 2.686-.207.233-.646.284-1.706.155-1.835-.232-2.429-.439-3.101-1.162-1.034-1.137-.543-3.539.853-4.107.646-.259 3.54-.336 4.135-.104ZM148.26 184.771c-.517.18-1.37.645-1.861 1.033-3.282 2.635-2.739 9.17.93 11.03 3.231 1.653 7.288.31 8.632-2.893.465-1.163.517-4.004.077-5.477-.439-1.42-2.351-3.383-3.695-3.745a7.548 7.548 0 0 0-4.083.052Zm4.212 1.524c3.747 1.911 3.204 8.679-.775 9.764-3.412.93-5.918-1.266-5.944-5.192 0-4.056 3.308-6.303 6.719-4.572ZM133.607 185.339c-.362.439-.388.387 1.886 3.41l1.783 2.402-1.059 1.343c-.595.749-1.602 2.041-2.248 2.842-1.163 1.446-1.37 2.273-.517 2.273.206 0 1.266-1.137 2.403-2.532 1.111-1.395 2.145-2.531 2.274-2.531.155 0 1.163 1.188 2.274 2.66 1.112 1.473 2.145 2.661 2.3 2.609.181-.077.414-.284.543-.49.207-.31-.258-1.085-1.964-3.333l-2.197-2.944 2.068-2.532c1.99-2.428 2.351-3.306 1.395-3.306-.232 0-1.292 1.11-2.377 2.48l-1.964 2.453-1.913-2.583c-1.059-1.446-2.041-2.609-2.145-2.609-.129 0-.361.181-.542.388Z"/></g><defs><clipPath id="a"><path fill="#fff" d="M0 0h276v202H0z"/></clipPath></defs></svg>