<svg width="360" height="104" viewBox="0 0 360 104" fill="none" xmlns="http://www.w3.org/2000/svg">
<path fill-rule="evenodd" clip-rule="evenodd" d="M-143.827 79.7956L-118.413 87.8503C-93.0004 95.9051 -42.1742 112.015 -0.290972 96.9364C41.5923 81.8582 74.5326 35.5923 115.603 17.6789C156.673 -0.234576 205.873 10.2044 248.57 -2.03853C291.266 -14.2815 327.458 -49.2064 345.554 -66.6688L363.65 -84.1313L344.139 -152.177L322.79 -146.056C301.442 -139.934 258.746 -127.691 216.05 -115.448C173.354 -103.205 130.657 -90.9624 87.9611 -78.7194C45.2648 -66.4765 2.5686 -54.2335 -40.1276 -41.9906C-82.8239 -29.7476 -125.52 -17.5047 -146.868 -11.3832L-168.216 -5.26173L-143.827 79.7956Z" fill="#0FA5A7"/>
</svg>
