<svg width="112" height="859" viewBox="0 0 112 859" fill="none" xmlns="http://www.w3.org/2000/svg">
<path fill-rule="evenodd" clip-rule="evenodd" d="M173.001 -543.504L130.164 -488.845C87.3275 -434.186 1.654 -324.869 0.235622 -208.92C-1.18275 -92.9708 81.654 29.6091 87.8952 146.161C94.1364 262.713 23.782 373.236 14.7041 488.582C5.62611 603.928 57.8246 724.097 83.9239 784.181L110.023 844.266L293.853 858.733L298.392 801.06C302.93 743.387 312.008 628.041 321.086 512.695C330.164 397.349 339.242 282.003 348.32 166.657C357.398 51.3106 366.476 -64.0354 375.554 -179.382C384.632 -294.728 393.71 -410.074 398.249 -467.747L402.788 -525.42L173.001 -543.504Z" fill="#0FA5A7"/>
</svg>
