<svg width="218" height="287" viewBox="0 0 218 287" fill="none" xmlns="http://www.w3.org/2000/svg">
<path fill-rule="evenodd" clip-rule="evenodd" d="M-121.637 0.350258L-94.7982 8.76803C-67.9597 17.1858 -14.2829 34.0214 12.7909 72.3997C39.8646 110.778 40.3353 170.699 64.9906 211.036C89.646 251.373 138.486 272.125 167.978 308.545C197.47 344.965 207.615 397.052 212.687 423.096L217.759 449.139L159.716 496.142L144.97 477.932C130.224 459.722 100.732 423.302 71.2396 386.882C41.7474 350.462 12.2552 314.042 -17.2371 277.622C-46.7293 241.203 -76.2215 204.783 -105.714 168.363C-135.206 131.943 -164.698 95.5231 -179.444 77.3132L-194.19 59.1032L-121.637 0.350258Z" fill="#0FA5A7"/>
</svg>
