<svg width="360" height="139" viewBox="0 0 360 139" fill="none" xmlns="http://www.w3.org/2000/svg">
<path fill-rule="evenodd" clip-rule="evenodd" d="M-62.369 50.1692L-39.4192 36.6042C-16.4693 23.0392 29.4303 -4.09077 73.632 1.17929C117.834 6.44935 160.337 44.1195 204.385 52.335C248.432 60.5505 294.023 39.3114 338.379 41.636C382.735 43.9606 425.856 69.8489 447.416 82.7931L468.977 95.7372L465.272 166.428L443.094 165.266C420.916 164.104 376.56 161.779 332.204 159.454C287.848 157.13 243.492 154.805 199.136 152.481C154.78 150.156 110.424 147.831 66.0681 145.507C21.7121 143.182 -22.6439 140.858 -44.8219 139.695L-67 138.533L-62.369 50.1692Z" fill="#0FA5A7"/>
</svg>
