<svg width="24" height="24" fill="none" xmlns="http://www.w3.org/2000/svg"><path fill-rule="evenodd" clip-rule="evenodd" d="M11.999 8C8.37 8 5.135 9.753 3 12.496c2.135 2.743 5.37 4.496 8.999 4.496 3.627 0 6.867-1.753 9.001-4.496C18.865 9.753 15.626 8 11.999 8Zm-6.15 4.496a7.956 7.956 0 0 1 6.114-2.858 2.858 2.858 0 0 0 0 5.717 7.963 7.963 0 0 1-6.113-2.859Zm4.899 0a1.226 1.226 0 1 1 2.452-.002 1.226 1.226 0 0 1-2.452.002Zm1.237 2.86h-.007a2.86 2.86 0 0 0 0-5.72h.007a7.959 7.959 0 0 1 6.135 2.86 7.959 7.959 0 0 1-6.135 2.86Z" fill="#4E5361"/></svg>