<svg width="24" height="24" fill="none" xmlns="http://www.w3.org/2000/svg"><path d="M16.179 3c.751 0 1.458.143 2.12.428a5.555 5.555 0 0 1 1.743 1.18 5.669 5.669 0 0 1 1.19 1.754 5.26 5.26 0 0 1 .439 2.13c0 .821-.087 1.563-.261 2.224a8.924 8.924 0 0 1-.68 1.806 9.809 9.809 0 0 1-.918 1.472 43.32 43.32 0 0 1-.981 1.243l-.272.313c-.25.306-.578.647-.981 1.023-.404.376-.836.759-1.295 1.148a52.477 52.477 0 0 1-2.673 2.12l-.97.71a7.467 7.467 0 0 0-.429.324.611.611 0 0 1-.376.125.557.557 0 0 1-.376-.125 17.686 17.686 0 0 1-.438-.324c-.25-.188-.57-.425-.96-.71s-.819-.613-1.285-.982a52.22 52.22 0 0 1-1.389-1.138c-.459-.39-.89-.772-1.294-1.148a10.766 10.766 0 0 1-.982-1.023l-.271-.313c-.32-.39-.647-.804-.982-1.243a9.816 9.816 0 0 1-.918-1.472 8.923 8.923 0 0 1-.679-1.806C2.087 10.055 2 9.313 2 8.492c0-.752.146-1.462.439-2.13a5.668 5.668 0 0 1 1.19-1.754 5.554 5.554 0 0 1 1.743-1.18A5.291 5.291 0 0 1 7.492 3c.877 0 1.691.191 2.443.574a5.55 5.55 0 0 1 1.9 1.577 5.55 5.55 0 0 1 1.9-1.577A5.306 5.306 0 0 1 16.18 3Z" fill="#4E5361"/></svg>