<svg width="24" height="25" fill="none" xmlns="http://www.w3.org/2000/svg"><path d="M13.582 12.386a1.582 1.582 0 1 1-3.164 0 1.582 1.582 0 0 1 3.164 0Z" fill="#4E5361"/><path d="M14.672 7.605H9.328c-1.163 0-2.11.946-2.11 2.11v5.343c0 1.164.947 2.11 2.11 2.11h5.344c1.163 0 2.11-.946 2.11-2.11V9.715c0-1.164-.947-2.11-2.11-2.11ZM12 15.023a2.64 2.64 0 0 1-2.637-2.636A2.64 2.64 0 0 1 12 9.75a2.64 2.64 0 0 1 2.637 2.636A2.64 2.64 0 0 1 12 15.024Zm3.023-5.133a.527.527 0 1 1 0-1.054.527.527 0 0 1 0 1.054Z" fill="#4E5361"/><path d="M16.254 3.387H7.746A4.752 4.752 0 0 0 3 8.133v8.507a4.752 4.752 0 0 0 4.746 4.747h8.508A4.752 4.752 0 0 0 21 16.64V8.133a4.752 4.752 0 0 0-4.746-4.746Zm1.582 11.671a3.168 3.168 0 0 1-3.164 3.165H9.328a3.168 3.168 0 0 1-3.164-3.165V9.715A3.168 3.168 0 0 1 9.328 6.55h5.344a3.168 3.168 0 0 1 3.164 3.164v5.343Z" fill="#4E5361"/></svg>