<svg width="24" height="24" fill="none" xmlns="http://www.w3.org/2000/svg"><path d="m5.28 3.116 14.108 8.145a.853.853 0 0 1 0 1.478L5.28 20.884A.853.853 0 0 1 4 20.145V3.855a.853.853 0 0 1 1.28-.74Z" fill="#4E5361"/><path d="M19.388 11.261 5.28 3.116a.856.856 0 0 0-.262-.095l13.64 7.875a.853.853 0 0 1 0 1.478L4.549 20.519a.838.838 0 0 1-.393.11.85.85 0 0 0 1.124.255l14.108-8.145a.853.853 0 0 0 0-1.478Z" fill="#4E5361"/><path d="m5.28 3.116 14.108 8.145a.853.853 0 0 1 0 1.478L5.28 20.884A.853.853 0 0 1 4 20.145V3.855a.853.853 0 0 1 1.28-.74Z" fill="#4E5361" stroke="#4E5361" stroke-miterlimit="10"/></svg>