<svg width="24" height="24" fill="none" xmlns="http://www.w3.org/2000/svg"><path d="M11.41 2.097c-.346.157-.644.573-.644.937 0 .365-.793 1.146-1.734 1.77C6.9 6.106 6.306 7.616 6.306 11.52c0 2.447-.198 3.124-1.338 4.373-1.09 1.197-1.19 1.562-.645 2.239.892 1.145 14.423 1.145 15.365 0 .644-.833.297-1.718-1.09-2.76-.695-.52-.893-1.405-.893-4.164 0-3.905-.644-5.362-3.023-6.612-.793-.468-1.438-1.145-1.438-1.51 0-.832-.941-1.301-1.833-.989ZM9.28 20.995c0 .26.594.885 1.288 1.406 1.14.78 1.438.78 2.577.104 2.28-1.354 1.933-2.03-1.09-2.03-1.536 0-2.775.208-2.775.52Z" fill="#4E5361"/></svg>