<svg width="24" height="24" fill="none" xmlns="http://www.w3.org/2000/svg"><path d="M8.061 21h-3.51A1.551 1.551 0 0 1 3 19.449V4.566c0-.857.695-1.551 1.551-1.551h3.51c.857 0 1.552.694 1.552 1.55V19.45c0 .856-.695 1.551-1.552 1.551Zm11.144-.015h-3.51a1.551 1.551 0 0 1-1.551-1.55V4.55c0-.856.694-1.551 1.551-1.551h3.51c.857 0 1.552.695 1.552 1.551v14.883c0 .857-.695 1.551-1.552 1.551Z" fill="#4E5361"/><path d="M8.33 3.042c.303.283.495.683.495 1.13v14.883a1.55 1.55 0 0 1-1.551 1.551h-3.51c-.092 0-.181-.012-.27-.027.278.26.648.421 1.057.421h3.51c.857 0 1.552-.695 1.552-1.551V4.566A1.55 1.55 0 0 0 8.33 3.042Zm11.144-.015c.303.283.495.683.495 1.13V19.04c0 .857-.694 1.552-1.551 1.552h-3.51c-.092 0-.181-.012-.27-.027.278.259.648.42 1.057.42h3.51c.857 0 1.552-.694 1.552-1.55V4.55a1.55 1.55 0 0 0-1.283-1.524Z" fill="#4E5361"/><path d="M8.061 21h-3.51A1.551 1.551 0 0 1 3 19.449V4.566c0-.857.695-1.551 1.551-1.551h3.51c.857 0 1.552.694 1.552 1.55V19.45c0 .856-.695 1.551-1.552 1.551Zm11.144-.015h-3.51a1.551 1.551 0 0 1-1.551-1.55V4.55c0-.856.694-1.551 1.551-1.551h3.51c.857 0 1.552.695 1.552 1.551v14.883c0 .857-.695 1.551-1.552 1.551Z" stroke="#4E5361" stroke-miterlimit="10"/></svg>