<svg width="24" height="24" fill="none" xmlns="http://www.w3.org/2000/svg"><path d="M19.875 15.855c-2.278 4.751-8.234 6.48-12.875 4.05a.782.782 0 0 1-.322-1.05.778.778 0 0 1 1.048-.323c3.876 2.024 8.824.58 10.737-3.358C21 9.948 17.725 5.963 15.07 4.488 11.46 2.476 6.876 3.811 4.687 7.24l2.69-.564c.403-.082.845.164.927.607.081.405-.163.848-.605.93l-4.766.973c-.799.078-.97-.646-.927-.891l.605-4.818a.754.754 0 0 1 .769-.688c.496 0 .807.486.768.93l-.233 1.965C6.143 2.928 10.523.577 15.843 3.029c2.255 1.167 7.431 5.747 4.032 12.826Z" fill="#4E5361"/></svg>