<svg width="20" height="20" fill="none" xmlns="http://www.w3.org/2000/svg"><path fill-rule="evenodd" clip-rule="evenodd" d="M10 4.167a1.25 1.25 0 1 0 0-2.5 1.25 1.25 0 0 0 0 2.5Zm0 14.166a1.25 1.25 0 1 0 0-2.5 1.25 1.25 0 0 0 0 2.5ZM2.917 11.25a1.25 1.25 0 1 0 0-2.5 1.25 1.25 0 0 0 0 2.5Zm14.166 0a1.25 1.25 0 1 0 0-2.5 1.25 1.25 0 0 0 0 2.5Z" fill="#4E5361" stroke="#4E5361" stroke-width="1.5" stroke-linecap="round" stroke-linejoin="round"/><path d="M10.082 7.31c1.275 0 2.426-.53 3.244-1.382a5.3 5.3 0 0 1 .757.718 4.49 4.49 0 0 0-1.5 3.354 4.49 4.49 0 0 0 1.59 3.433c-.188.23-.396.444-.62.64a4.491 4.491 0 0 0-3.47-1.636 4.49 4.49 0 0 0-3.462 1.624 5.307 5.307 0 0 1-.693-.735 4.488 4.488 0 0 0 1.382-3.244 4.49 4.49 0 0 0-1.371-3.234c.265-.339.57-.644.909-.91a4.488 4.488 0 0 0 3.234 1.372Z" stroke="#4E5361" stroke-width="1.5" stroke-linecap="round" stroke-linejoin="round"/></svg>